<?xml version="1.0" encoding="iso-8859-1"?>
<!-- Generator: Adobe Illustrator 19.0.0, SVG Export Plug-In . SVG Version: 6.00 Build 0)  -->
<svg version="1.1" id="Layer_1" xmlns="http://www.w3.org/2000/svg" xmlns:xlink="http://www.w3.org/1999/xlink" x="0px" y="0px"
	 viewBox="0 0 512 512" style="enable-background:new 0 0 512 512;" xml:space="preserve">
<path style="fill:#C7D5DD;" d="M255.832,24.016c128.124,0.096,231.912,104.028,231.816,232.152S383.62,488.08,255.496,487.984
	C127.444,487.888,23.68,384.052,23.68,256C23.872,127.892,127.724,24.112,255.832,24.016 M255.832,0
	C114.443,0.096-0.096,114.779,0,256.168S114.779,512.096,256.168,512C397.485,511.904,512,397.317,512,256
	C511.952,114.571,397.261-0.048,255.832,0z"/>
<g>
	
		<rect x="227.863" y="113.103" transform="matrix(0.7071 -0.7071 0.7071 0.7071 -106.0971 255.9227)" style="fill:#E04F5F;" width="56.028" height="285.857"/>
	
		<rect x="112.943" y="227.962" transform="matrix(0.7071 -0.7071 0.7071 0.7071 -106.0594 255.9024)" style="fill:#E04F5F;" width="285.857" height="56.028"/>
</g>
<g>
</g>
<g>
</g>
<g>
</g>
<g>
</g>
<g>
</g>
<g>
</g>
<g>
</g>
<g>
</g>
<g>
</g>
<g>
</g>
<g>
</g>
<g>
</g>
<g>
</g>
<g>
</g>
<g>
</g>
</svg>
